<?xml version="1.0" standalone="no"?>
<!DOCTYPE svg PUBLIC "-//W3C//DTD SVG 20010904//EN"
 "http://www.w3.org/TR/2001/REC-SVG-20010904/DTD/svg10.dtd">
<svg version="1.0" xmlns="http://www.w3.org/2000/svg"
 width="1172.000000pt" height="1280.000000pt" viewBox="0 0 1172.000000 1280.000000"
 preserveAspectRatio="xMidYMid meet">
<metadata>
Created by potrace 1.15, written by Peter Selinger 2001-2017
</metadata>
<g transform="translate(0.000000,1280.000000) scale(0.100000,-0.100000)"
fill="#000000" stroke="none">
<path d="M6130 12794 c-398 -37 -800 -167 -1150 -372 -220 -130 -468 -350
-586 -522 -97 -140 -174 -321 -190 -443 -7 -48 -14 -58 -94 -142 -167 -175
-290 -408 -385 -725 -79 -265 -99 -759 -41 -1037 l14 -63 -43 -19 c-105 -46
-148 -194 -110 -376 27 -126 90 -225 184 -285 23 -16 24 -18 32 -250 4 -129 6
-280 3 -335 -32 -732 -36 -881 -31 -1168 4 -172 11 -337 16 -367 5 -30 13 -77
17 -104 l7 -49 -34 6 c-163 29 -187 30 -256 13 -46 -11 -112 -16 -203 -16
-623 -1 -1078 -95 -1298 -269 -109 -86 -189 -238 -234 -442 -20 -92 -22 -131
-22 -344 0 -197 4 -265 22 -380 12 -77 22 -147 22 -155 0 -8 -20 -26 -45 -39
-24 -13 -66 -47 -93 -76 -32 -34 -61 -55 -82 -60 -113 -25 -214 -250 -241
-534 -6 -64 -13 -130 -15 -148 l-5 -31 -127 -6 c-448 -23 -746 -55 -898 -99
l-79 -22 -17 -80 c-48 -228 -99 -641 -119 -955 -14 -217 -6 -604 15 -765 23
-178 77 -411 105 -454 7 -11 64 -19 223 -32 446 -37 1000 -74 1523 -101 334
-17 1300 -17 1475 0 150 15 396 61 451 84 36 16 36 16 47 104 30 236 36 350
36 694 1 412 -15 623 -70 960 -34 208 -122 584 -141 600 -5 4 -53 21 -108 37
l-100 31 -375 7 c-206 4 -376 8 -376 8 -1 1 3 34 8 72 6 39 8 133 5 210 -7
161 -30 269 -81 379 -73 155 -237 246 -443 246 l-83 0 0 53 c0 169 38 419 79
528 25 67 88 142 141 169 99 50 483 110 711 110 l49 0 0 -53 c0 -29 -5 -91
-11 -137 -19 -139 -21 -133 31 -143 245 -47 643 -178 654 -216 32 -107 240
-1590 254 -1811 l7 -105 75 -3 75 -3 33 -187 c92 -514 208 -1047 254 -1167
l21 -57 355 4 355 3 73 -455 c40 -250 75 -474 79 -498 l6 -42 -34 20 c-73 43
-148 62 -247 63 -206 2 -386 -96 -463 -252 -31 -63 -32 -70 -31 -186 1 -128
19 -202 79 -326 14 -29 25 -54 25 -56 0 -2 -1053 -3 -2340 -3 l-2341 0 -24
-25 c-32 -31 -32 -69 0 -100 l24 -25 2481 0 2481 0 -60 88 c-116 172 -173 318
-175 447 -1 68 3 88 24 129 70 137 315 199 474 121 94 -47 149 -112 266 -315
57 -100 106 -178 107 -173 2 5 -26 196 -62 424 -85 535 -173 1086 -180 1125
l-5 31 250 -1 250 -1 0 -953 0 -953 25 -24 c30 -30 64 -32 99 -4 l26 20 2 955
3 954 268 5 c147 3 267 2 267 -1 0 -4 -68 -367 -150 -807 -83 -440 -149 -801
-147 -804 2 -2 55 85 118 194 126 220 178 281 276 329 51 26 69 29 153 29 76
0 108 -5 157 -24 177 -67 227 -203 154 -421 -37 -109 -74 -181 -147 -288 l-53
-77 2297 -3 c1263 -1 2307 0 2319 3 13 3 30 19 39 36 13 26 13 36 3 60 -6 17
-20 34 -30 39 -11 6 -816 10 -2184 10 -1730 0 -2166 3 -2162 13 43 93 79 198
93 266 51 257 -60 440 -316 519 -135 42 -261 36 -377 -18 -49 -22 -63 -26 -63
-14 0 12 135 740 171 922 l11 54 309 -7 309 -8 20 47 c42 100 143 560 250
1140 37 203 47 273 39 288 -6 11 -9 21 -7 22 2 1 38 17 80 35 73 31 77 35 82
70 3 20 31 419 62 886 35 523 62 855 68 862 28 32 400 152 581 188 50 10 94
21 98 25 4 4 1 46 -8 95 -8 48 -15 119 -15 156 l0 69 43 0 c232 0 618 -59 716
-110 120 -61 184 -229 210 -543 6 -70 11 -146 11 -168 l0 -39 -83 0 c-207 0
-368 -89 -443 -245 -66 -138 -78 -204 -79 -446 l0 -216 -254 -6 c-140 -4 -309
-7 -375 -8 -108 0 -132 -4 -221 -33 -116 -37 -103 -17 -160 -246 -56 -223
-107 -529 -135 -810 -6 -58 -14 -245 -17 -416 -6 -319 4 -560 33 -778 8 -61
14 -114 14 -118 0 -27 224 -80 440 -104 189 -22 861 -30 1259 -15 507 19 1078
53 1686 101 357 28 320 17 349 108 142 451 138 1220 -10 2031 -13 74 -24 138
-24 142 0 10 -72 36 -151 54 -108 24 -360 53 -579 65 -113 7 -245 15 -295 19
l-90 6 -7 105 c-10 139 -43 308 -77 397 -41 103 -90 166 -158 199 -30 15 -79
51 -107 80 -29 28 -71 61 -93 72 l-40 21 18 112 c57 353 48 692 -24 904 -86
251 -218 374 -498 464 -279 89 -585 120 -1178 121 l-313 0 5 23 c14 53 57 301
71 407 51 376 70 775 63 1342 l-5 446 24 6 c38 10 132 109 160 170 37 81 57
188 51 273 -9 121 -74 211 -165 229 -26 5 -31 10 -26 23 13 31 16 323 5 449
-18 190 -68 519 -96 625 -36 139 -87 273 -170 442 -118 241 -251 420 -370 500
-42 27 -55 41 -50 53 46 119 53 345 16 482 -12 47 -40 122 -60 166 -156 333
-421 525 -828 599 -86 16 -388 27 -483 19z m445 -139 c357 -57 595 -218 738
-500 128 -253 118 -520 -30 -768 -60 -102 -218 -264 -327 -337 -236 -158 -514
-228 -736 -187 -68 13 -117 32 -245 97 -181 91 -291 130 -450 163 -95 19 -141
22 -340 22 -253 0 -348 -11 -562 -67 -65 -16 -127 -32 -138 -35 -17 -3 -25 7
-47 64 -15 38 -50 103 -78 145 l-50 76 11 77 c53 382 373 742 889 999 314 156
635 244 985 270 83 6 285 -4 380 -19z m951 -1337 c125 -119 257 -340 360 -603
60 -155 89 -272 123 -512 55 -381 65 -646 27 -736 -15 -36 -57 -64 -77 -52
-17 11 -137 171 -178 238 -188 309 -371 839 -476 1378 l-26 136 51 69 c29 37
62 87 73 111 12 24 27 43 34 43 7 0 47 -32 89 -72z m-3278 -120 c122 -177 174
-417 143 -653 -60 -459 -212 -814 -439 -1027 l-72 -68 -25 22 c-52 45 -77 206
-77 493 0 292 22 461 82 645 44 131 86 233 138 334 63 122 188 296 213 296 5
0 21 -19 37 -42z m2947 -243 c34 -180 118 -495 185 -695 149 -449 299 -729
496 -928 l92 -93 11 -179 c59 -968 25 -1824 -94 -2409 -14 -68 -25 -125 -25
-127 0 -21 -346 -256 -535 -365 -355 -203 -735 -346 -1012 -381 l-92 -12 -138
-223 c-76 -123 -140 -223 -143 -223 -3 0 -59 100 -126 222 l-121 222 -109 18
c-229 36 -568 138 -827 249 -189 81 -282 129 -417 214 -63 39 -151 91 -195
115 -44 23 -115 65 -157 93 -71 47 -78 55 -88 96 -53 227 -60 540 -30 1226 21
468 22 541 11 880 -6 204 -11 433 -11 511 l0 141 26 12 c106 48 262 217 366
394 163 279 285 787 257 1074 -5 53 -11 104 -14 113 -5 14 11 22 87 43 232 64
460 93 663 84 259 -12 431 -58 673 -182 195 -100 236 -110 437 -109 139 0 173
4 255 26 178 48 383 153 498 255 26 22 50 38 53 35 3 -4 14 -47 24 -97z
m-3447 -1793 c1 -124 -1 -202 -7 -202 -5 0 -23 28 -40 63 -58 118 -60 276 -5
325 14 13 31 21 38 19 8 -2 12 -65 14 -205z m4447 135 c71 -60 40 -289 -49
-376 l-33 -32 -7 118 c-3 65 -9 162 -13 216 l-6 97 41 0 c28 0 49 -7 67 -23z
m-5108 -2997 c26 -128 48 -301 41 -322 -5 -12 -35 -16 -145 -21 -282 -13 -535
-58 -659 -117 -174 -84 -254 -286 -284 -720 -19 -278 -22 -272 128 -264 54 3
126 1 158 -5 66 -12 182 -65 191 -87 3 -7 -7 -35 -22 -61 -25 -41 -27 -50 -16
-79 21 -59 -30 -143 -113 -186 -92 -47 -388 -98 -498 -85 -72 9 -148 49 -178
94 -22 32 -25 47 -25 128 0 85 2 95 30 141 35 55 116 111 178 121 20 3 40 9
42 13 3 4 -4 50 -15 101 -48 233 -69 525 -51 706 41 400 172 565 526 662 184
50 468 90 620 87 l70 -1 22 -105z m133 95 c-12 -15 -30 -12 -30 6 0 5 10 9 21
9 18 0 19 -2 9 -15z m4972 -10 c10 -22 8 -30 -9 -53 -18 -24 -27 -27 -78 -27
-46 0 -60 -4 -69 -19 -21 -36 -46 -56 -71 -56 -14 0 -25 3 -25 6 0 3 12 44 26
90 l26 84 94 0 c91 0 95 -1 106 -25z m378 16 c0 -17 -18 -21 -24 -6 -3 9 0 15
9 15 8 0 15 -4 15 -9z m382 -7 c366 -37 628 -116 753 -226 144 -126 208 -337
208 -678 -1 -191 -16 -347 -54 -533 -11 -54 -17 -102 -14 -107 4 -6 16 -10 28
-10 33 0 118 -43 151 -76 63 -64 92 -179 67 -270 -22 -82 -127 -144 -242 -144
-76 0 -267 28 -349 51 -41 11 -96 32 -122 46 -76 41 -124 129 -98 177 10 20 8
31 -15 76 -14 28 -24 57 -22 64 8 19 100 65 167 82 49 12 89 15 172 10 101 -5
110 -4 129 15 20 20 21 28 15 133 -34 588 -114 780 -357 862 -133 45 -355 79
-575 89 -171 8 -171 8 -168 42 11 103 28 213 46 306 l22 107 53 0 c29 0 121
-7 205 -16z m-5338 -46 c38 -53 4 -108 -66 -108 -51 0 -78 22 -78 63 0 46 25
67 81 67 38 0 51 -5 63 -22z m4221 -28 c-25 -40 -604 -384 -620 -368 -2 2 44
30 103 62 125 69 323 192 436 270 75 52 97 62 81 36z m-4005 -80 c10 -5 26
-32 35 -60 9 -28 28 -64 43 -81 19 -23 152 -245 152 -255 0 -1 -13 -7 -29 -14
-21 -8 -35 -9 -48 -1 -22 11 -73 81 -73 99 0 7 -7 12 -15 12 -46 0 -154 149
-171 236 -11 56 51 93 106 64z m3899 -172 c-69 -138 -69 -138 -150 -138 -61 0
-73 3 -94 25 -30 29 -31 54 -4 88 19 25 24 26 106 25 93 -3 80 -9 144 70 5 6
16 12 25 12 10 0 3 -22 -27 -82z m-4329 12 c24 -24 27 -97 5 -139 -19 -39 -61
-48 -94 -23 -23 18 -26 26 -23 78 2 49 6 63 28 82 31 27 58 28 84 2z m4971
-41 c30 -30 22 -104 -16 -136 -33 -29 -45 -29 -80 -1 -24 19 -27 26 -22 67 9
77 73 115 118 70z m-4708 -132 c112 -49 134 -76 106 -128 -22 -41 -55 -42
-143 -4 -44 20 -87 39 -93 42 -8 3 -13 -2 -13 -13 0 -51 -75 -71 -124 -33 -72
57 11 154 89 103 24 -16 25 -16 25 9 0 27 32 57 61 57 8 0 50 -15 92 -33z
m852 13 c23 -25 24 -76 2 -97 -19 -20 -70 -21 -91 -3 -21 17 -20 79 1 102 21
24 65 23 88 -2z m3706 -11 c47 -25 40 -100 -11 -117 -16 -6 -30 -8 -33 -6 -2
3 -10 -9 -17 -26 -17 -42 -65 -80 -101 -80 -35 0 -69 31 -69 65 0 31 69 105
98 105 13 0 22 6 22 15 0 22 41 55 68 55 13 0 32 -5 43 -11z m-817 -88 c19
-21 20 -34 18 -139 -2 -67 -4 -75 -36 -109 -31 -34 -37 -37 -62 -28 -40 14
-48 46 -39 159 5 76 11 102 26 117 24 24 71 24 93 0z m-2593 -103 c105 -70
124 -100 98 -146 -10 -19 -24 -28 -46 -30 -29 -3 -69 19 -220 123 -29 20 -30
62 -1 92 34 37 66 29 169 -39z m3689 -35 c0 -16 3 -38 6 -49 4 -17 0 -22 -20
-26 -44 -9 -55 42 -18 85 22 24 32 21 32 -10z m-4435 -3 c27 -29 33 -115 10
-140 -20 -22 -55 -26 -85 -10 -21 11 -40 60 -40 101 0 60 76 92 115 49z m1284
0 c10 -5 24 -23 31 -40 11 -28 11 -34 -7 -58 -28 -38 -75 -41 -108 -8 -14 14
-25 37 -25 51 0 50 61 81 109 55z m1453 -27 c35 -40 32 -60 -19 -114 -101
-109 -162 -134 -202 -83 -12 15 -21 35 -21 45 0 21 66 99 84 99 7 0 27 16 46
35 38 40 86 47 112 18z m1177 -54 c18 -32 10 -67 -24 -103 -33 -35 -79 -33
-108 6 -20 27 -20 28 -2 68 22 49 39 61 85 57 25 -1 38 -9 49 -28z m-2829 1
c39 -39 15 -101 -44 -116 -37 -9 -57 -2 -79 28 -17 23 -18 31 -8 56 21 51 94
69 131 32z m1140 -34 c-1 -11 -69 -60 -76 -54 -1 2 9 22 24 45 20 31 30 39 39
31 7 -6 13 -16 13 -22z m-2749 -16 l24 -19 -37 11 c-21 6 -35 15 -32 20 8 13
20 10 45 -12z m1018 -16 c21 -27 28 -78 13 -88 -5 -3 -31 17 -58 45 -40 41
-46 51 -34 59 27 17 58 11 79 -16z m3264 -32 c20 -18 22 -61 5 -85 -16 -20
-90 -47 -129 -47 -65 0 -93 80 -43 119 15 12 38 21 53 22 14 0 35 4 46 8 23 9
43 4 68 -17z m-2243 -2 c-6 -11 -13 -20 -16 -20 -2 0 0 9 6 20 6 11 13 20 16
20 2 0 0 -9 -6 -20z m2530 6 c0 -2 -7 -7 -16 -10 -8 -3 -12 -2 -9 4 6 10 25
14 25 6z m-2716 -44 c2 -4 -11 -36 -31 -71 -32 -58 -37 -62 -51 -47 -22 21
-20 80 3 106 18 20 69 28 79 12z m1187 -71 c16 -16 29 -38 29 -48 0 -20 -26
-62 -32 -53 -6 9 -48 115 -48 123 0 15 23 6 51 -22z m924 19 c32 -12 48 -51
35 -85 -11 -28 -17 -31 -142 -71 -83 -26 -88 -26 -112 -10 -14 9 -26 20 -26
25 0 18 142 134 173 141 45 11 43 11 72 0z m-1811 -41 c19 -15 26 -30 26 -54
0 -37 -37 -75 -71 -75 -30 0 -59 36 -59 73 0 37 7 49 35 65 28 16 39 15 69 -9z
m-1365 -45 c69 -58 10 -145 -74 -110 -53 23 -63 99 -15 123 37 19 55 16 89
-13z m892 -135 c16 -17 29 -38 29 -46 0 -28 -31 -123 -40 -123 -5 0 -34 12
-63 26 l-54 27 2 53 c3 94 67 126 126 63z m1692 8 c16 -11 7 -18 -72 -65 -82
-49 -179 -92 -207 -92 -6 0 -14 27 -18 65 -4 36 -9 72 -12 80 -8 20 39 21 55
1 9 -11 20 -10 64 5 61 21 166 24 190 6z m-1173 -127 c26 -26 25 -60 -1 -94
-39 -50 -119 -25 -119 37 0 65 76 101 120 57z m2072 -67 c-6 -125 -21 -140
-22 -22 0 89 4 109 20 109 3 0 4 -39 2 -87z m-2250 -40 c47 -43 3 -123 -68
-123 -86 0 -102 113 -19 133 40 10 69 7 87 -10z m918 -3 c27 -27 23 -156 -5
-176 -29 -22 -63 -17 -112 17 -91 63 -87 146 9 169 56 14 87 11 108 -10z
m-1727 -80 c48 -53 77 -106 77 -138 0 -12 14 -29 35 -42 29 -18 44 -21 84 -15
53 7 76 -6 87 -50 12 -50 -44 -95 -119 -95 -64 0 -217 96 -217 136 0 7 -5 25
-10 40 l-11 27 -27 -26 c-47 -46 -101 -30 -117 34 -5 21 1 35 32 71 21 25 46
59 55 77 14 25 23 31 52 31 28 0 42 -8 79 -50z m2286 -14 c27 -25 27 -70 0
-97 -18 -18 -30 -21 -74 -17 -71 6 -105 29 -105 70 0 54 25 71 97 66 42 -3 68
-10 82 -22z m-2781 -29 c13 -12 22 -32 22 -49 0 -95 -170 -101 -178 -7 -3 41
12 58 67 75 42 12 57 9 89 -19z m3171 19 c19 -11 29 -11 50 0 33 16 125 2 152
-22 27 -24 25 -79 -3 -98 -27 -20 -90 -20 -142 -1 -28 10 -45 11 -58 4 -52
-28 -121 25 -102 78 9 25 45 53 69 52 6 0 21 -6 34 -13z m-2885 -212 c9 -3 36
-37 61 -74 48 -71 52 -103 18 -131 -43 -36 -106 -1 -149 83 -30 59 -30 73 1
103 25 25 41 30 69 19z m2101 -59 c43 -42 23 -96 -43 -115 -47 -15 -88 0 -104
36 -16 35 6 75 52 91 52 18 68 16 95 -12z m3611 -39 c29 -65 59 -196 73 -328
16 -147 15 -160 -11 -156 -25 3 -22 -6 -53 190 -8 53 -22 116 -31 140 -9 23
-17 54 -17 68 0 43 7 140 11 140 2 0 14 -24 28 -54z m-8715 -110 c-18 -22 -42
-124 -57 -241 -9 -66 -18 -123 -20 -127 -3 -5 -14 -8 -25 -8 -16 0 -19 7 -19
48 1 124 42 340 83 437 l21 50 13 -75 c7 -42 9 -78 4 -84z m1100 -20 c11 -91
8 -209 -8 -308 -5 -33 -9 -38 -33 -38 l-27 0 -6 187 c-4 166 -3 192 13 223 9
19 21 49 25 65 l8 30 8 -29 c5 -17 14 -75 20 -130z m6550 -146 c-2 -102 -5
-188 -8 -192 -2 -5 -15 -8 -27 -8 -18 0 -25 7 -30 33 -15 72 -18 256 -7 338
20 139 20 139 49 72 24 -56 25 -64 23 -243z m-2881 260 c15 -15 20 -33 20 -74
0 -30 -5 -58 -10 -61 -7 -4 -7 -12 0 -25 16 -29 12 -58 -11 -90 -23 -30 -26
-58 -14 -126 6 -35 4 -45 -14 -63 -26 -26 -72 -27 -93 -3 -55 63 -46 213 18
283 10 11 12 19 5 24 -6 3 -11 31 -11 61 0 61 22 94 65 94 14 0 34 -9 45 -20z
m-1569 -120 c24 -13 49 -61 49 -95 0 -32 -33 -65 -66 -65 -15 0 -38 12 -55 29
-67 67 -9 174 72 131z m2559 -90 c11 -11 20 -29 20 -40 0 -27 -27 -92 -43
-102 -24 -15 -64 -8 -86 16 -18 19 -21 30 -16 60 15 78 79 112 125 66z m-1420
-84 c0 -85 -2 -95 -20 -101 -36 -12 -73 20 -84 72 -6 28 -4 33 21 45 15 7 37
28 48 45 11 18 23 32 28 33 4 0 7 -42 7 -94z m-4095 8 c53 -14 89 -16 188 -11
67 3 129 7 136 9 8 2 17 -10 22 -28 17 -59 103 -114 180 -114 33 0 89 19 110
36 24 21 29 17 29 -26 l0 -40 -429 0 -428 0 3 23 c2 12 8 60 14 107 17 128 13
124 66 90 25 -15 74 -36 109 -46z m611 48 c-25 -48 -50 -64 -97 -60 -31 2 -45
8 -47 19 -2 12 16 23 70 41 94 32 91 32 74 0z m4596 11 c29 -26 23 -77 -13
-107 -37 -32 -68 -40 -117 -33 -93 15 -97 137 -4 137 20 0 44 5 52 10 23 15
61 12 82 -7z m2451 -14 c51 -16 67 -25 65 -38 -5 -24 -84 -28 -110 -4 -27 25
-55 77 -36 70 7 -3 44 -16 81 -28z m703 -65 c7 -49 14 -104 14 -121 l0 -33
-425 0 -425 0 0 41 0 41 34 -21 c43 -27 110 -36 164 -22 53 15 109 63 117 101
l6 30 140 -7 c159 -7 233 7 309 57 24 16 46 28 48 26 2 -2 10 -44 18 -92z
m-2722 30 c21 -20 20 -73 -1 -96 -16 -18 -59 -24 -79 -10 -36 24 -39 92 -5
112 25 15 68 12 85 -6z m-1958 -31 c45 -49 47 -127 3 -152 -42 -23 -74 -8
-104 50 -29 59 -31 76 -9 107 22 32 77 30 110 -5z m1318 -68 c26 -26 28 -52 7
-94 -24 -47 -68 -80 -114 -88 -28 -4 -37 -1 -55 22 -14 17 -22 22 -22 13 0 -8
-11 -25 -24 -37 -22 -20 -30 -22 -83 -16 -71 9 -91 19 -103 51 -13 32 5 70 39
83 38 16 130 -1 152 -27 l16 -21 12 25 c6 13 21 29 33 35 13 5 31 23 40 40 14
23 24 29 52 29 19 0 41 -7 50 -15z m-2330 -27 c21 -30 20 -50 -5 -82 -39 -49
-109 -24 -109 40 0 42 23 64 65 64 24 0 39 -7 49 -22z m3273 -345 c-7 -94 -15
-174 -18 -177 -9 -9 -342 -136 -346 -132 -2 2 15 20 37 40 31 28 48 36 78 36
39 0 103 28 110 48 2 7 -5 12 -17 12 -24 0 -51 36 -51 67 0 30 34 63 65 63 14
0 34 -9 45 -20 11 -11 22 -20 24 -20 2 0 6 19 9 43 13 113 30 182 51 199 11 9
22 16 23 15 1 -1 -4 -79 -10 -174z m-4360 150 c22 -8 21 -9 -23 -83 -150 -248
-348 -455 -574 -602 -268 -175 -565 -267 -909 -284 -339 -17 -664 85 -954 299
-96 70 -265 232 -346 332 -62 75 -181 243 -181 256 0 28 485 72 995 89 322 10
1961 5 1992 -7z m6958 7 c541 -16 1055 -59 1055 -87 0 -11 -108 -164 -170
-243 -83 -104 -249 -266 -350 -341 -318 -237 -664 -336 -1050 -300 -370 34
-685 158 -965 381 -84 67 -251 241 -318 331 -67 89 -159 241 -151 248 17 18
1457 25 1949 11z m-2917 -26 c16 -11 22 -25 22 -54 0 -61 -54 -90 -98 -52 -35
29 -38 67 -8 96 29 30 52 33 84 10z m747 -182 c-50 -345 -85 -785 -85 -1072 0
-272 30 -604 76 -829 13 -68 23 -125 21 -127 -5 -6 -160 26 -169 34 -13 13
-38 338 -45 572 -13 499 50 1062 166 1500 17 62 45 110 58 97 1 -2 -8 -81 -22
-175z m-4528 126 c19 -58 81 -343 103 -476 63 -377 90 -820 71 -1191 -7 -135
-18 -293 -24 -351 l-12 -105 -75 -17 c-117 -25 -110 -33 -85 80 56 246 79 504
79 877 -1 364 -26 688 -84 1083 -11 74 -20 136 -20 139 0 2 8 3 18 1 9 -2 22
-19 29 -40z m898 -13 c14 -13 25 -33 25 -45 0 -28 -44 -70 -73 -70 -32 0 -64
28 -73 62 -4 21 0 33 20 52 32 33 70 33 101 1z m2021 -41 c47 -50 42 -104 -12
-124 -74 -29 -145 92 -83 142 32 27 58 22 95 -18z m-850 -31 l24 -26 -27 -29
c-21 -22 -27 -39 -27 -71 0 -23 4 -51 9 -62 17 -40 -34 15 -65 71 -35 60 -38
96 -10 124 28 28 66 25 96 -7z m2652 -94 c78 -117 160 -214 273 -325 331 -321
722 -494 1205 -535 403 -33 791 81 1126 333 166 125 365 337 489 519 43 63 43
63 50 35 12 -43 57 -372 74 -537 37 -363 37 -802 0 -1064 -17 -122 -58 -302
-71 -315 -9 -8 -67 -13 -489 -45 -894 -68 -1709 -102 -2190 -91 -347 7 -494
18 -506 38 -28 45 -80 355 -100 594 -15 189 -6 782 15 989 25 250 59 496 66
488 4 -4 30 -42 58 -84z m-4849 -91 c40 -317 52 -481 58 -803 6 -343 -3 -535
-37 -765 -19 -129 -61 -325 -73 -336 -11 -12 -213 -24 -497 -30 -475 -11
-1265 21 -2140 87 -380 28 -545 41 -548 44 -1 1 -13 44 -26 96 -96 383 -96
946 0 1628 14 102 29 194 33 205 7 17 15 9 60 -57 73 -109 182 -236 297 -348
212 -204 421 -333 679 -418 178 -58 289 -75 490 -74 553 2 1031 206 1405 599
88 93 176 205 231 293 18 28 35 51 39 51 4 0 17 -78 29 -172z m2039 86 c36
-25 30 -75 -15 -114 -34 -30 -40 -32 -101 -28 -53 3 -68 8 -83 27 -43 53 -6
117 62 108 26 -3 42 0 50 9 15 19 59 18 87 -2z m-568 -34 c32 -32 26 -73 -15
-109 -63 -55 -145 -35 -145 35 0 27 7 38 43 62 50 36 89 40 117 12z m2170 0
c26 -26 25 -60 -1 -94 -39 -50 -119 -25 -119 37 0 65 76 101 120 57z m-1370 0
c0 -5 -7 -10 -15 -10 -8 0 -15 5 -15 10 0 6 7 10 15 10 8 0 15 -4 15 -10z
m-1516 -121 l31 -19 -46 0 -47 0 -4 45 -3 46 19 -27 c11 -14 33 -35 50 -45z
m1626 -79 c0 -9 -32 -30 -46 -30 -4 0 1 9 11 20 19 21 35 26 35 10z m347 -22
c18 -18 33 -36 33 -41 0 -16 -84 4 -130 31 l-45 26 30 7 c60 13 79 9 112 -23z
m1333 -17 c0 -18 -101 -557 -144 -766 -50 -242 -76 -361 -107 -475 l-20 -75
-624 0 c-464 0 -627 3 -636 12 -17 17 -2 463 15 463 7 0 51 40 99 89 67 68 87
95 87 116 0 35 -26 65 -55 65 -20 0 -169 -92 -204 -125 -12 -11 -26 -5 -93 41
-44 30 -84 54 -89 54 -19 0 -48 -20 -59 -41 -18 -32 -3 -55 69 -109 39 -28 71
-60 74 -73 3 -12 7 -128 9 -257 l3 -235 -635 3 -635 2 -36 143 c-45 173 -229
1086 -229 1133 0 3 14 -5 31 -17 41 -29 109 -35 185 -15 34 9 92 16 128 16 94
0 369 -26 596 -57 344 -46 547 -36 652 33 21 13 40 24 43 24 2 0 36 -20 74
-44 81 -52 88 -54 366 -65 236 -11 527 0 668 24 80 14 395 111 437 136 19 11
30 11 30 0z"/>
<path d="M5119 9958 c-94 -105 -137 -144 -207 -190 -78 -51 -82 -55 -82 -87 0
-32 27 -61 56 -61 79 0 394 289 394 362 0 10 -9 27 -20 38 -37 37 -61 26 -141
-62z"/>
<path d="M6607 10002 c-10 -10 -17 -28 -17 -39 0 -47 201 -266 304 -332 80
-50 141 -37 134 29 -3 29 -12 40 -68 78 -79 53 -133 105 -208 197 -31 39 -61
73 -67 77 -19 14 -62 8 -78 -10z"/>
<path d="M5195 9510 c-104 -43 -114 -222 -16 -287 92 -62 210 17 211 140 0 88
-59 157 -133 156 -23 0 -51 -4 -62 -9z m73 -142 c2 -13 -4 -30 -12 -37 -12
-10 -16 -8 -21 8 -8 27 3 63 18 58 7 -2 13 -15 15 -29z"/>
<path d="M6542 9490 c-48 -29 -72 -75 -72 -138 0 -97 56 -162 140 -162 152 0
190 233 49 305 -39 20 -78 19 -117 -5z m82 -154 c-8 -27 -11 -29 -23 -21 -12
7 -15 58 -4 69 12 12 34 -27 27 -48z"/>
<path d="M5773 8999 c-200 -20 -395 -125 -486 -262 -146 -220 -77 -480 167
-632 287 -178 706 -142 930 80 363 357 -24 873 -611 814z m313 -153 c314 -101
413 -389 200 -583 -261 -239 -790 -173 -925 116 -75 161 14 342 212 437 107
50 181 64 317 60 89 -3 133 -10 196 -30z"/>
<path d="M6850 8451 c-80 -29 -104 -77 -59 -122 20 -20 41 -21 82 -4 15 6 17
1 17 -47 0 -71 -46 -167 -129 -270 -143 -177 -294 -261 -551 -305 -116 -19
-410 -22 -554 -4 -110 14 -140 10 -157 -20 -12 -24 3 -74 27 -83 88 -34 564
-42 723 -13 254 48 400 123 553 286 124 132 191 247 211 366 10 56 14 66 39
76 59 24 46 94 -24 127 -65 32 -114 35 -178 13z"/>
</g>
</svg>
