<?xml version="1.0" standalone="no"?>
<!DOCTYPE svg PUBLIC "-//W3C//DTD SVG 20010904//EN"
 "http://www.w3.org/TR/2001/REC-SVG-20010904/DTD/svg10.dtd">
<svg version="1.0" xmlns="http://www.w3.org/2000/svg"
 width="840.000000pt" height="1280.000000pt" viewBox="0 0 840.000000 1280.000000"
 preserveAspectRatio="xMidYMid meet">
<metadata>
Created by potrace 1.15, written by Peter Selinger 2001-2017
</metadata>
<g transform="translate(0.000000,1280.000000) scale(0.100000,-0.100000)"
fill="#000000" stroke="none">
<path d="M3965 12781 c-147 -37 -297 -117 -404 -217 l-58 -53 -45 43 c-106
101 -317 156 -598 156 -199 0 -358 -36 -512 -116 -105 -55 -241 -192 -290
-294 -49 -100 -71 -196 -66 -286 l5 -72 -48 -6 c-67 -9 -144 -37 -250 -92
-231 -119 -314 -221 -429 -524 -72 -193 -117 -272 -217 -380 -137 -151 -220
-294 -297 -517 -130 -378 -208 -1017 -162 -1331 23 -153 77 -335 136 -459 56
-119 85 -162 172 -260 113 -128 166 -242 194 -413 26 -160 17 -298 -46 -715
-25 -162 -24 -311 2 -360 15 -28 15 -32 -8 -77 -208 -410 -199 -951 22 -1283
144 -217 389 -362 684 -406 81 -11 374 -7 448 7 30 6 32 4 32 -21 0 -55 -41
-226 -106 -440 -155 -514 -214 -828 -214 -1131 0 -214 34 -356 101 -420 16
-15 29 -36 29 -45 0 -70 77 -182 133 -193 115 -24 220 -29 260 -12 36 14 40
14 80 -7 63 -33 146 -30 219 7 41 21 61 26 70 19 7 -6 25 -13 41 -17 15 -3 27
-12 27 -19 0 -6 67 -599 149 -1317 82 -717 147 -1308 145 -1312 -3 -4 -707 -8
-1565 -8 -1546 0 -1559 0 -1579 -20 -25 -25 -26 -61 -1 -91 l19 -24 1638 -3
c901 -1 1641 1 1644 5 4 5 -71 685 -166 1513 -95 828 -173 1513 -174 1523 0
12 8 17 25 17 40 0 99 35 143 85 l41 46 32 -17 c45 -23 148 -30 204 -14 59 16
118 59 151 110 26 39 27 39 55 24 19 -9 29 -22 29 -37 0 -21 -28 -640 -105
-2316 -14 -304 -24 -555 -23 -557 2 -2 44 24 93 57 105 71 257 147 370 185 65
23 102 29 200 32 141 4 171 -5 245 -74 95 -89 133 -228 133 -486 l-1 -168
1890 0 1889 0 24 25 c30 30 31 54 4 89 l-20 26 -1757 2 c-1381 2 -1756 6
-1755 15 7 33 -20 267 -37 331 -37 134 -105 235 -194 287 -51 30 -269 93 -350
101 -74 7 -195 -10 -296 -42 -41 -13 -78 -24 -83 -24 -4 0 -5 17 -2 38 3 20
21 148 40 283 26 179 277 1723 340 2084 l5 30 83 0 c70 0 90 4 133 27 28 15
64 38 81 52 16 13 46 27 66 31 53 10 98 44 126 94 13 24 41 110 61 190 20 80
41 145 46 144 28 -4 408 -104 415 -109 5 -3 9 -11 9 -19 0 -16 31 -28 51 -19
10 4 498 565 631 724 17 21 19 20 395 -121 208 -77 385 -143 393 -146 12 -3
102 236 415 1096 321 883 403 1100 415 1095 8 -3 33 -8 56 -11 86 -11 153 55
154 149 0 29 6 41 25 54 35 23 65 75 65 113 0 18 -9 49 -20 70 l-19 39 35 5
c76 13 132 84 120 151 -8 42 -69 105 -125 131 -23 10 -41 21 -41 24 0 4 74
210 165 459 l164 453 -14 106 c-9 58 -13 120 -10 137 10 49 -12 221 -44 356
-16 69 -40 207 -52 308 -13 100 -26 182 -30 182 -4 0 -10 -12 -13 -26 -4 -14
-25 -72 -46 -128 -22 -55 -101 -267 -175 -471 -75 -203 -138 -371 -139 -373
-8 -7 -691 108 -694 117 -5 15 -48 -4 -92 -42 -21 -17 -64 -47 -97 -66 -100
-59 -215 -134 -283 -186 -36 -28 -107 -79 -158 -114 l-92 -63 -228 51 c-407
91 -888 189 -1187 241 -71 13 -132 25 -133 26 -2 1 25 76 61 166 163 407 276
848 339 1313 19 134 22 209 23 460 0 165 -3 318 -7 341 -7 39 -7 41 36 71 122
86 188 275 188 538 0 239 -48 465 -151 715 -66 160 -131 266 -221 360 l-76 80
13 77 c8 43 13 116 11 163 -3 74 -8 95 -39 160 -94 196 -294 322 -579 365
-124 19 -228 18 -315 -4z m399 -131 c179 -46 326 -151 388 -278 28 -56 32 -75
31 -136 -2 -116 -86 -472 -135 -576 -12 -25 -56 -79 -97 -121 -118 -117 -239
-169 -402 -169 -138 0 -345 47 -460 105 -71 37 -145 100 -175 151 -17 29 -42
106 -65 202 -34 141 -49 186 -49 153 0 -49 -54 -370 -71 -422 -61 -185 -188
-337 -344 -410 -130 -61 -237 -83 -395 -84 -159 0 -214 14 -283 75 -72 64 -97
137 -149 439 l-13 75 -68 -148 c-59 -129 -74 -154 -121 -197 -92 -84 -136
-186 -136 -314 0 -90 23 -166 94 -310 96 -193 119 -278 120 -445 1 -155 -14
-221 -89 -397 -97 -227 -125 -357 -132 -613 -4 -162 0 -242 22 -475 26 -278
34 -570 19 -671 -6 -41 -15 -57 -68 -109 -109 -108 -153 -222 -158 -416 l-2
-106 -70 -49 c-91 -63 -267 -233 -342 -329 l-59 -76 -3 53 c-3 54 0 83 42 371
47 316 44 497 -10 686 -38 129 -136 297 -214 366 -39 34 -116 159 -154 252
-52 123 -103 329 -114 459 -20 225 24 644 99 964 75 319 169 521 319 686 134
146 175 217 267 459 25 66 59 147 76 179 60 113 159 202 312 279 144 72 232
83 340 42 36 -13 65 -22 65 -20 0 3 -14 39 -32 82 -28 69 -32 89 -33 173 0
117 19 180 84 275 80 118 199 200 366 251 86 27 99 28 305 28 189 1 225 -2
303 -22 170 -43 247 -103 247 -196 0 -33 2 -35 51 -45 29 -6 53 -10 54 -9 2 2
14 26 28 54 40 80 151 175 271 234 56 28 126 57 156 65 76 21 277 13 384 -15z
m640 -990 c209 -409 264 -887 133 -1146 -14 -28 -33 -56 -41 -63 -14 -12 -16
-10 -16 16 0 39 -44 212 -72 283 -63 162 -188 380 -317 554 -37 50 -70 97 -75
104 -5 8 10 32 43 67 80 89 111 153 166 350 l17 60 54 -60 c33 -36 76 -103
108 -165z m-1351 -294 c102 -49 207 -81 336 -102 174 -28 317 -12 448 50 l73
35 35 -43 c99 -121 292 -439 335 -551 10 -26 5 -23 -43 22 -69 65 -143 112
-232 148 -79 31 -114 27 -129 -17 -11 -32 14 -78 42 -78 41 0 164 -72 232
-135 38 -36 75 -65 82 -65 25 0 57 30 60 58 6 44 56 -123 67 -225 54 -472 44
-827 -35 -1263 -33 -185 -110 -493 -170 -680 -43 -134 -173 -478 -193 -508 -7
-12 -41 -9 -192 17 -522 87 -956 144 -1374 180 -232 20 -565 38 -565 30 0 -3
31 -94 70 -204 38 -109 68 -200 66 -202 -2 -2 -32 15 -67 37 -141 92 -311 160
-444 180 l-80 12 -1 261 c0 179 -6 310 -17 412 -60 524 -38 746 108 1090 68
161 89 256 88 415 -1 182 -28 284 -123 475 -81 163 -94 210 -88 309 6 90 43
163 107 213 l45 34 33 -71 c42 -91 81 -140 143 -180 88 -57 157 -73 310 -73
179 -1 323 30 467 100 147 72 281 216 357 385 l40 87 59 -55 c37 -35 91 -70
150 -98z m4208 -3122 c7 -9 12 -34 12 -56 -2 -28 8 -59 33 -106 32 -59 43
-119 21 -116 -4 1 -50 7 -102 15 -52 7 -95 16 -95 20 0 26 94 259 105 259 7 0
19 -7 26 -16z m-747 -229 c81 -13 150 -26 153 -29 11 -11 -22 -49 -73 -81 -72
-46 -97 -74 -140 -155 -39 -75 -75 -102 -131 -99 -21 2 -49 -3 -61 -10 -13 -7
-26 -11 -28 -8 -3 2 14 78 36 168 62 249 59 239 78 239 9 0 84 -11 166 -25z
m-288 -72 c-3 -10 -14 -56 -26 -103 -12 -47 -26 -102 -31 -123 l-10 -38 -39
41 c-34 35 -61 91 -60 125 1 10 149 115 163 115 5 0 6 -8 3 -17z m-4734 -19
c137 -31 287 -107 445 -226 43 -32 83 -58 90 -58 6 0 29 -53 51 -117 22 -65
74 -217 115 -338 41 -121 89 -282 106 -357 21 -96 48 -178 87 -269 53 -124 55
-132 38 -142 -29 -16 -74 -67 -95 -109 -48 -94 -64 -270 -33 -353 8 -22 18
-48 21 -57 4 -14 -28 -34 -168 -102 -154 -76 -416 -176 -460 -176 -13 0 -19
19 -29 93 -27 206 -102 512 -171 700 l-28 78 32 -8 c70 -18 159 -9 222 21 73
36 224 183 274 268 144 246 130 554 -34 736 -86 95 -273 205 -396 232 -62 14
-201 9 -259 -9 -20 -6 -62 -27 -94 -46 l-59 -35 6 28 c13 64 50 143 89 187 68
77 118 89 250 59z m5773 -34 c8 -13 -25 -13 -45 0 -12 8 -9 10 12 10 15 0 30
-4 33 -10z m-4012 -213 c39 -23 48 -25 75 -15 42 16 79 -2 98 -47 8 -19 20
-35 27 -35 25 0 111 -69 134 -107 32 -53 31 -116 -2 -148 -22 -22 -32 -25
-105 -25 l-80 0 0 -33 c0 -53 -28 -132 -56 -161 -21 -20 -37 -26 -69 -26 -56
0 -81 21 -119 101 l-31 64 -75 11 c-70 11 -77 14 -116 58 -123 135 -80 315 92
381 61 23 171 15 227 -18z m-1663 -69 c147 -50 309 -186 350 -293 31 -83 38
-226 15 -314 -37 -142 -134 -285 -247 -364 -45 -32 -68 -41 -111 -45 -57 -4
-114 16 -149 55 -16 18 -13 20 100 62 137 51 179 77 259 165 109 119 157 248
134 356 -34 157 -168 289 -363 357 -89 31 -180 34 -256 9 -65 -22 -80 -15 -20
9 94 37 184 39 288 3z m-90 -119 c126 -29 269 -135 310 -231 42 -98 12 -193
-99 -310 -75 -80 -76 -81 -241 -143 -309 -118 -482 -238 -580 -405 -59 -101
-80 -182 -80 -314 0 -196 55 -350 165 -462 233 -238 673 -211 1246 76 78 39
151 77 162 85 12 8 30 15 40 15 18 0 67 42 67 57 0 5 -18 32 -39 61 -51 67
-67 136 -51 222 11 62 28 110 39 110 3 0 22 -52 41 -116 19 -63 38 -120 42
-126 4 -7 51 16 130 65 227 139 374 262 488 406 34 44 70 83 78 86 19 7 62
-21 62 -41 0 -51 -118 -205 -276 -359 l-113 -111 41 -41 41 -42 152 145 c174
165 244 222 320 260 80 39 96 20 46 -54 -66 -101 -180 -217 -316 -324 -77 -60
-146 -113 -154 -118 -11 -6 -7 -17 18 -54 18 -25 34 -46 37 -46 11 0 103 66
193 139 121 98 234 182 239 177 5 -6 -55 -123 -94 -181 -71 -108 -221 -234
-340 -285 -81 -36 -193 -60 -272 -60 -75 0 -75 0 -113 40 -56 58 -107 53 -224
-22 -117 -76 -376 -192 -605 -271 -464 -160 -915 -108 -1175 135 -175 163
-258 363 -272 653 -18 389 129 749 427 1045 150 149 329 268 484 321 89 31
109 34 176 18z m5681 -162 c18 -12 40 -34 48 -48 13 -24 2 -59 -199 -612 -117
-322 -216 -591 -221 -598 -6 -10 -16 -9 -46 2 -35 14 -40 21 -69 99 -41 113
-67 162 -103 193 -77 65 -160 31 -186 -75 -6 -25 -4 -28 18 -28 61 0 123 -45
158 -112 20 -40 25 -120 10 -161 -17 -43 -69 -94 -156 -151 -98 -65 -123 -97
-171 -227 -44 -118 -75 -171 -121 -206 -32 -24 -46 -28 -104 -28 -62 0 -71 3
-99 30 -56 53 -74 100 -74 190 0 98 21 150 117 277 77 104 93 153 84 267 -3
42 -20 130 -38 196 -50 192 -51 197 -45 254 7 76 47 151 115 213 63 59 183
126 271 153 80 24 298 37 352 22 l43 -13 18 34 c16 31 17 42 6 107 -10 66 -10
77 7 111 41 82 146 133 275 134 63 0 82 -4 110 -23z m-2530 -324 c72 -23 109
-64 143 -157 19 -51 40 -87 62 -108 38 -36 51 -77 34 -109 -10 -18 -9 -24 5
-32 85 -47 155 -164 155 -258 0 -95 -24 -155 -89 -220 -63 -63 -104 -79 -240
-98 -98 -13 -108 -24 -77 -81 71 -130 80 -155 84 -227 5 -91 -16 -156 -68
-216 -73 -82 -190 -111 -365 -87 -49 6 -122 14 -161 17 -86 7 -82 11 -144
-146 -56 -143 -75 -176 -128 -233 -58 -62 -108 -88 -167 -88 -86 0 -158 48
-202 134 -21 40 -27 70 -31 137 -8 158 43 271 157 344 115 73 153 135 136 223
-4 20 -24 82 -45 137 -53 136 -63 187 -50 247 29 139 115 224 274 273 92 28
138 53 161 88 8 13 21 73 29 135 10 86 20 121 40 157 81 138 322 221 487 168z
m2599 -90 c46 -30 80 -67 80 -85 0 -29 -46 -52 -102 -50 -28 0 -53 4 -56 7 -7
7 38 145 47 145 4 0 18 -7 31 -17z m-40 -318 c0 -51 -62 -82 -102 -51 -23 17
-23 32 4 101 l22 58 38 -41 c23 -25 38 -51 38 -67z m-1641 -10 c100 -73 127
-137 91 -208 -12 -23 -25 -71 -30 -105 -8 -65 -12 -73 -111 -219 -29 -43 -63
-116 -92 -198 -55 -152 -83 -197 -137 -225 -44 -23 -112 -26 -128 -7 -11 13
17 145 134 620 50 203 59 230 80 239 13 6 21 15 18 19 -9 15 14 81 37 105 34
36 68 30 138 -21z m-4244 -66 c15 -44 15 -50 -1 -76 -10 -15 -36 -47 -58 -70
-33 -36 -47 -43 -77 -43 -45 0 -169 37 -169 51 0 21 89 104 174 160 102 69
101 69 131 -22z m5767 -66 c31 -30 36 -64 12 -87 -16 -17 -79 -22 -88 -8 -6 9
34 122 42 122 3 0 19 -12 34 -27z m-5672 -205 c62 -201 130 -527 130 -619 l0
-38 -57 -7 c-73 -9 -204 1 -267 21 -142 44 -238 152 -282 316 -33 125 -16 358
25 346 9 -3 42 -15 73 -26 131 -48 222 -37 297 35 25 24 49 44 53 44 3 0 16
-33 28 -72z m3756 -168 c-51 -205 -54 -214 -66 -185 -8 17 -14 62 -14 101 -1
68 1 74 45 140 25 38 54 90 64 117 10 26 19 46 21 45 1 -2 -22 -100 -50 -218z
m-2461 -626 c33 -6 34 -7 55 -97 103 -444 150 -729 173 -1036 l12 -164 80 -23
c210 -62 663 -192 869 -250 126 -35 231 -65 233 -68 3 -2 -4 -37 -14 -78 l-19
-73 -219 3 c-388 6 -763 -28 -1085 -99 -229 -51 -392 -102 -615 -194 -261
-108 -464 -168 -612 -181 -85 -8 -92 -3 -118 81 -66 211 -15 680 123 1155 22
74 65 223 97 330 47 161 58 213 62 295 l6 101 116 37 c232 75 512 198 671 295
l65 39 43 -33 c24 -18 59 -36 77 -40z m3491 -554 c48 -19 91 -30 115 -28 21 1
41 -1 45 -5 5 -5 -228 -662 -239 -674 -3 -2 -74 23 -158 55 -85 32 -237 90
-339 127 -102 37 -189 71 -193 75 -5 5 -3 34 4 66 11 49 22 67 69 114 64 64
127 90 222 90 78 0 105 15 214 121 88 86 93 89 137 89 28 0 77 -12 123 -30z
m-1306 -500 c0 -5 7 -10 15 -10 9 0 28 -12 42 -26 25 -25 25 -29 19 -108 -10
-119 14 -172 62 -140 13 9 25 14 27 12 3 -4 -306 -360 -310 -356 -2 2 21 122
51 268 30 146 60 289 66 318 6 28 15 52 19 52 5 0 9 -4 9 -10z m-1855 -132 c4
-35 3 -58 -3 -58 -11 0 -22 74 -21 139 l1 46 8 -35 c5 -19 12 -61 15 -92z
m1685 -208 c-33 -162 -62 -295 -63 -296 -6 -6 -860 226 -871 236 -4 5 -3 25 4
45 15 44 47 66 155 101 88 29 225 96 295 143 25 17 53 31 63 31 10 0 53 -18
95 -40 103 -53 155 -70 211 -70 59 0 81 16 126 91 21 33 39 58 41 56 2 -2 -23
-136 -56 -297z m-966 -523 c-17 -47 -174 -74 -247 -44 -41 18 -49 43 -14 50
12 2 77 5 144 6 97 1 121 -2 117 -12z m306 -1 c0 -8 -10 -27 -23 -42 -22 -25
-26 -26 -57 -15 -35 12 -80 48 -80 63 0 4 36 8 80 8 63 0 80 -3 80 -14z m-759
-36 c-62 -53 -189 -64 -242 -21 -23 18 -21 18 82 30 57 7 109 14 114 16 6 2
26 4 45 4 l35 0 -34 -29z m-411 -42 c0 -24 -40 -78 -72 -99 -46 -28 -140 -23
-187 10 -17 13 -29 26 -26 30 6 6 248 68 273 70 6 1 12 -5 12 -11z m970 -59
c0 -14 -87 -40 -126 -37 l-39 3 52 24 c29 13 58 30 64 37 10 12 15 12 30 -2
11 -10 19 -21 19 -25z m-350 -26 c36 -5 40 -8 40 -34 0 -37 -36 -264 -169
-1059 -119 -706 -190 -1161 -218 -1388 l-18 -144 -38 -20 -39 -19 6 88 c7 106
6 97 56 1198 22 484 45 972 50 1085 5 113 10 217 10 233 0 22 4 27 25 27 33 0
118 33 150 58 l26 21 40 -20 c21 -12 57 -23 79 -26z m-1046 -60 c-44 -72 -120
-92 -179 -49 -11 8 -17 17 -13 21 10 10 212 84 217 79 2 -2 -9 -25 -25 -51z
m-266 -125 c28 -31 40 -78 19 -78 -21 0 -67 21 -67 30 0 22 13 70 20 70 3 0
16 -10 28 -22z m-164 -20 c-14 -48 -35 -93 -47 -100 -15 -10 -68 -10 -84 0
-11 7 -37 62 -31 67 8 5 145 53 156 54 9 1 11 -6 6 -21z m-380 -100 c-10 -34
-44 -78 -59 -78 -14 0 -50 68 -41 78 5 5 34 11 99 21 5 0 5 -9 1 -21z m145
-84 c-9 -11 -59 -26 -59 -18 0 2 8 19 17 39 l17 36 17 -23 c12 -15 14 -27 8
-34z m282 -8 c-6 -7 -22 -16 -34 -20 -18 -4 -17 -2 8 18 31 25 46 26 26 2z
m2029 -2638 c13 -107 13 -201 0 -193 -6 4 -8 10 -6 14 6 8 -10 233 -18 276 -6
26 -5 27 3 7 6 -12 15 -59 21 -104z"/>
<path d="M4050 12560 c-34 -8 -70 -41 -70 -64 0 -6 7 -22 16 -35 15 -21 21
-22 73 -16 117 14 264 -44 318 -124 48 -71 23 -190 -67 -324 -71 -105 -162
-192 -247 -234 -67 -33 -76 -35 -155 -32 -70 3 -94 9 -148 36 -36 18 -88 53
-117 78 -59 52 -94 58 -119 20 -25 -38 -11 -68 58 -123 200 -158 410 -175 601
-48 110 73 248 244 305 378 22 52 26 78 27 153 0 81 -3 95 -30 144 -53 95
-159 161 -303 187 -87 15 -93 15 -142 4z"/>
<path d="M2798 12323 c-42 -46 -14 -90 65 -103 142 -23 211 -121 210 -300 -1
-157 -34 -247 -113 -305 -60 -44 -129 -58 -257 -53 -124 6 -143 -2 -143 -54 0
-46 29 -59 137 -65 262 -14 427 92 478 308 18 79 19 247 1 314 -41 155 -157
259 -304 272 -48 4 -60 2 -74 -14z"/>
<path d="M3926 12281 c-14 -15 -15 -30 -10 -89 7 -69 6 -71 -23 -101 -17 -16
-43 -33 -59 -37 -63 -15 -85 -72 -44 -109 19 -17 26 -18 66 -7 134 36 200 138
180 277 -12 76 -70 111 -110 66z"/>
<path d="M2680 12093 c-11 -15 -18 -33 -15 -42 44 -113 8 -211 -109 -300 -46
-34 -56 -47 -56 -71 0 -21 8 -35 26 -47 25 -16 28 -16 70 6 54 29 144 123 174
181 28 55 37 150 20 219 -19 79 -70 105 -110 54z"/>
<path d="M1625 10476 c-29 -21 -23 -66 18 -119 77 -101 124 -237 114 -327 -3
-25 -23 -86 -45 -135 -129 -296 -196 -647 -172 -897 9 -89 14 -106 35 -125 27
-24 54 -21 80 7 14 16 15 28 4 106 -29 222 33 561 157 850 61 143 71 207 51
309 -18 89 -57 177 -116 264 -55 80 -86 97 -126 67z"/>
<path d="M996 9894 c-21 -21 -20 -49 5 -120 13 -37 23 -94 26 -154 5 -108 0
-126 -71 -227 -158 -223 -133 -515 67 -759 159 -195 214 -309 238 -496 12 -94
25 -118 64 -118 40 0 55 25 55 94 0 144 -83 361 -189 496 -121 154 -145 188
-171 245 -56 121 -64 261 -21 375 11 30 43 86 71 124 67 91 84 153 77 270 -5
98 -42 233 -73 267 -21 23 -57 25 -78 3z"/>
<path d="M3351 10984 c-94 -25 -151 -63 -278 -190 -128 -126 -143 -152 -107
-188 36 -36 64 -21 174 93 107 110 147 138 254 175 65 23 82 47 63 86 -17 33
-45 39 -106 24z"/>
<path d="M4437 10599 c-56 -33 -129 -330 -147 -600 -8 -124 1 -338 18 -438 l7
-44 73 86 c112 134 187 166 277 119 136 -69 166 -228 61 -319 -45 -38 -133
-86 -181 -97 -48 -12 -145 -8 -208 9 -125 33 -237 112 -267 187 -20 49 -40 68
-71 68 -19 0 -34 -8 -45 -25 -44 -67 78 -227 226 -298 149 -71 326 -86 450
-38 81 31 190 110 226 163 83 123 57 299 -59 404 -97 87 -228 107 -337 51 -28
-15 -54 -27 -56 -27 -7 0 -4 122 6 240 13 138 41 281 80 405 35 109 36 119 10
145 -22 22 -37 24 -63 9z"/>
<path d="M4595 10391 c-80 -50 -128 -139 -128 -241 -1 -107 47 -170 130 -170
56 0 92 19 137 72 62 72 85 204 48 278 -36 72 -124 101 -187 61z m83 -153 c3
-53 -25 -120 -58 -138 -48 -26 -51 82 -4 153 35 53 58 47 62 -15z"/>
<path d="M3319 10227 c-85 -32 -138 -97 -159 -194 -23 -105 36 -212 126 -229
82 -15 182 51 224 148 69 160 -48 327 -191 275z m81 -126 c28 -52 -3 -149 -54
-173 -78 -35 -102 82 -32 157 37 39 70 45 86 16z"/>
<path d="M3628 8765 c-65 -21 -140 -97 -167 -170 -37 -99 -24 -189 37 -257 87
-97 218 -104 296 -18 39 44 40 47 56 174 12 98 7 153 -20 206 -33 65 -117 92
-202 65z m103 -132 c8 -19 8 -59 1 -127 -10 -109 -21 -126 -75 -126 -64 0
-102 52 -95 130 10 105 140 199 169 123z"/>
</g>
</svg>
